<svg width="42" height="42" viewBox="0 0 42 42" fill="none" xmlns="http://www.w3.org/2000/svg">
<circle cx="21" cy="21" r="21" fill="#E7F5FB"/>
<g clip-path="url(#clip0_35_188)">
<path d="M29.5555 13.6665H12.4444C12.1202 13.6665 11.8094 13.7953 11.5801 14.0245C11.3509 14.2537 11.2222 14.5646 11.2222 14.8887V27.1109C11.2222 27.4351 11.3509 27.746 11.5801 27.9752C11.8094 28.2044 12.1202 28.3332 12.4444 28.3332H29.5555C29.8797 28.3332 30.1905 28.2044 30.4197 27.9752C30.649 27.746 30.7777 27.4351 30.7777 27.1109V14.8887C30.7777 14.5646 30.649 14.2537 30.4197 14.0245C30.1905 13.7953 29.8797 13.6665 29.5555 13.6665ZM28.6144 27.1109H13.4588L17.7366 22.6865L16.8566 21.8371L12.4444 26.4021V15.8176L20.0405 23.3771C20.2695 23.6047 20.5793 23.7325 20.9022 23.7325C21.2251 23.7325 21.5348 23.6047 21.7638 23.3771L29.5555 15.6282V26.3226L25.0577 21.8248L24.1961 22.6865L28.6144 27.1109ZM13.2449 14.8887H28.5655L20.9022 22.5093L13.2449 14.8887Z" fill="#47B2E4"/>
</g>
<defs>
<clipPath id="clip0_35_188">
<rect width="22" height="22" fill="white" transform="translate(10 10)"/>
</clipPath>
</defs>
</svg>
