<svg width="129" height="37" viewBox="0 0 129 37" fill="none" xmlns="http://www.w3.org/2000/svg">
<g clip-path="url(#clip0_36_224)">
<path d="M46 6H59.5015V10.9205H55.5077V8.93938H52.098V12.8135H56.3869V15.7764H52.098V18.604H54.399V21.5787H46V18.604H47.4008V8.93938H46V6Z" fill="#37517E"/>
<path d="M78.0847 21.5787H69.0301V18.6393H71.176L70.7021 17.1255H66.0735L65.5996 18.6393H67.361V21.5787H60.1781V18.6393H61.716L64.777 8.87177H63.853V6H72.5083L76.5051 18.6393H78.0847V21.5787ZM66.908 14.4625H69.8676L68.3774 9.6507L66.908 14.4625Z" fill="#37517E"/>
<path d="M79.1219 11.8552V6H93.9348L93.9855 8.96289L85.7177 18.6393H89.8903L89.9142 15.7881H93.911V21.5787H78.9878V18.6716L87.2079 8.93938L82.9399 8.96289L82.9608 11.8552H79.1219Z" fill="#37517E"/>
<path d="M95.2433 11.8552V6H110.056L110.104 8.96289L101.839 18.6393H106.012L106.036 15.7881H110.032V21.5787H95.1091V18.6716L103.329 8.93938L99.0523 8.96289L99.0732 11.8552H95.2433Z" fill="#37517E"/>
<path d="M128.911 21.5787H119.856V18.6393H122.002L121.528 17.1255H116.899L116.425 18.6393H118.184V21.5787H111.004V18.6393H112.539L115.588 8.87177H114.664V6H123.334L127.331 18.6393H128.911V21.5787ZM117.734 14.4742H120.69L119.2 9.66246L117.734 14.4742Z" fill="#37517E"/>
<path d="M46.2384 29.8912V23.4805H49.5527C50.4071 23.4805 51.0489 23.6333 51.4781 23.939C51.6794 24.071 51.8439 24.2509 51.9564 24.462C52.0689 24.673 52.1258 24.9086 52.1218 25.1471C52.1306 25.4609 52.0388 25.7695 51.8596 26.0289C51.6795 26.2809 51.4318 26.4783 51.1442 26.5991C50.8132 26.7398 50.4555 26.809 50.0951 26.802L50.2799 26.4257C50.6678 26.4184 51.0534 26.4853 51.4155 26.6227C51.724 26.7412 51.9911 26.9454 52.1844 27.2105C52.3759 27.4881 52.4729 27.8185 52.4616 28.1541C52.4696 28.4087 52.4103 28.6609 52.2896 28.8861C52.1689 29.1113 51.9909 29.3017 51.7731 29.4386C51.3141 29.7325 50.6406 29.903 49.7464 29.903L46.2384 29.8912ZM47.7882 28.7743H49.6183C49.9386 28.7924 50.2581 28.7275 50.5452 28.5862C50.6429 28.5187 50.7228 28.4289 50.7779 28.3246C50.833 28.2202 50.8618 28.1042 50.8618 27.9865C50.8618 27.8688 50.833 27.7529 50.7779 27.6485C50.7228 27.5441 50.6429 27.4544 50.5452 27.3869C50.2606 27.2379 49.9398 27.1697 49.6183 27.19H47.6839V26.1083H49.359C49.669 26.129 49.9787 26.0639 50.2531 25.9201C50.3465 25.857 50.423 25.7723 50.4758 25.6735C50.5286 25.5746 50.5562 25.4646 50.5562 25.3528C50.5562 25.2411 50.5286 25.1311 50.4758 25.0322C50.423 24.9334 50.3465 24.8487 50.2531 24.7856C49.9787 24.6418 49.669 24.5767 49.359 24.5974H47.7882V28.7743Z" fill="#37517E"/>
<path d="M63.6712 28.7008H67.364V29.8765H62.1124V23.4805H67.2388V24.6709H63.6623L63.6712 28.7008ZM63.555 26.0554H66.8335V27.2076H63.555V26.0554Z" fill="#37517E"/>
<path d="M76.1802 29.8912L79.2053 23.4805H80.7552L83.7893 29.8912H82.1411L79.6614 24.2241H80.2753L77.7837 29.8824L76.1802 29.8912ZM77.6943 28.5156L78.1085 27.3898H81.5987L82.0249 28.5156H77.6943Z" fill="#37517E"/>
<path d="M95.8245 30C94.8628 30 94.1097 29.7472 93.5653 29.2416C93.0208 28.7361 92.7496 28.012 92.7516 27.0694V23.4805H94.3223V27.0077C94.3223 27.6162 94.4534 28.0571 94.7187 28.3246C95.0303 28.5846 95.4252 28.7273 95.8334 28.7273C96.2416 28.7273 96.6365 28.5846 96.9481 28.3246C97.2134 28.0571 97.3445 27.6162 97.3445 27.0077V23.4805H98.8943V27.0694C98.8943 28.01 98.6231 28.7341 98.0807 29.2416C97.458 29.7755 96.6481 30.0478 95.8245 30Z" fill="#37517E"/>
<path d="M110.193 29.8912V24.6886H108.023V23.4805H113.934V24.6886H111.764V29.8912H110.193Z" fill="#37517E"/>
<path d="M124.795 29.8913V27.2724L125.155 28.1542L122.175 23.4512H123.844L126.13 27.049H125.17L127.465 23.4512H129.006L126.025 28.1542L126.374 27.2724V29.8913H124.795Z" fill="#37517E"/>
</g>
<path d="M26.41 16.5545C26.4082 15.9219 26.6492 15.3127 27.0834 14.8526C27.5175 14.3926 28.1117 14.1167 28.7434 14.0819C30.1911 14.0471 31.3221 15.0876 31.3395 16.5301C31.3495 16.8592 31.2935 17.1869 31.1749 17.494C31.0562 17.8011 30.8772 18.0813 30.6485 18.3182C30.4197 18.555 30.1459 18.7436 29.8431 18.8728C29.5403 19.0021 29.2147 19.0694 28.8855 19.0708C28.5563 19.0722 28.2301 19.0076 27.9262 18.8809C27.6223 18.7542 27.3469 18.568 27.1162 18.3331C26.8855 18.0983 26.7041 17.8196 26.5828 17.5135C26.4615 17.2074 26.4028 16.8801 26.41 16.551V16.5545ZM30.9932 15.6949C30.9993 15.6708 31.0004 15.6458 30.9965 15.6213C30.9926 15.5967 30.9838 15.5733 30.9706 15.5522C30.7935 15.1635 30.51 14.8329 30.1528 14.5987C30.1248 14.5804 30.0934 14.568 30.0605 14.5623C30.0276 14.5565 29.9938 14.5575 29.9613 14.5651C29.9288 14.5728 29.8981 14.5869 29.8712 14.6068C29.8443 14.6266 29.8217 14.6517 29.8048 14.6805C29.7648 14.6509 29.7596 14.5308 29.73 14.5708C29.6586 14.67 29.5769 14.6022 29.5055 14.6143C29.3753 14.6422 29.2407 14.6422 29.1105 14.6143C29.0073 14.5713 28.8937 14.5592 28.7837 14.5796C28.6737 14.6 28.572 14.652 28.4911 14.7292C28.4337 14.7849 28.3675 14.8092 28.4145 14.9032C28.4441 14.9676 28.3797 15.0076 28.331 15.0389C28.2823 15.0702 28.2562 15.0215 28.2283 14.9885C28.2005 14.9554 28.2092 14.8823 28.1431 14.9171C28.1323 14.9238 28.1231 14.9326 28.1159 14.943C28.1087 14.9534 28.1038 14.9652 28.1013 14.9776C28.0989 14.99 28.099 15.0027 28.1017 15.0151C28.1044 15.0274 28.1096 15.0391 28.117 15.0494C28.1505 15.1008 28.1641 15.1626 28.1553 15.2234C28.1553 15.293 28.1396 15.3191 28.0787 15.3382C27.9621 15.3747 27.9378 15.4391 27.9952 15.5557C28.0074 15.5801 28.0265 15.6079 27.9952 15.627C27.9117 15.6879 27.9064 15.801 27.8368 15.8706C27.7822 15.9411 27.7432 16.0224 27.7225 16.1091C27.7018 16.1958 27.6998 16.286 27.7168 16.3735C27.7194 16.4225 27.7338 16.4701 27.7588 16.5122C27.7839 16.5543 27.8188 16.5898 27.8606 16.6154C27.9023 16.6411 27.9497 16.6563 27.9986 16.6596C28.0475 16.6629 28.0965 16.6543 28.1413 16.6345C28.2318 16.6067 28.4041 16.6937 28.3971 16.7668C28.3929 16.8111 28.3976 16.8558 28.4111 16.8983C28.4245 16.9407 28.4464 16.9801 28.4754 17.0138C28.4999 17.0404 28.5187 17.0718 28.5306 17.1059C28.5426 17.14 28.5475 17.1761 28.545 17.2122C28.4911 17.4053 28.6233 17.5254 28.7016 17.6611C28.7451 17.7377 28.7851 17.8456 28.9122 17.8351C28.9818 17.8334 29.0482 17.8054 29.098 17.7566C29.1477 17.7078 29.1771 17.642 29.1801 17.5724C29.1801 17.5324 29.1801 17.4923 29.2149 17.4645C29.251 17.4366 29.276 17.3968 29.2856 17.3522C29.2951 17.3077 29.2886 17.2611 29.2671 17.2209C29.1854 17.0469 29.2671 16.9234 29.3802 16.8033C29.4439 16.7281 29.4828 16.6352 29.4916 16.5371C29.4916 16.4849 29.4829 16.4466 29.415 16.4675C29.3768 16.4779 29.3228 16.5214 29.3037 16.457C29.2845 16.3927 29.3559 16.4101 29.3872 16.3892C29.4951 16.3178 29.6343 16.2848 29.676 16.1299C29.7004 16.0359 29.6499 15.9716 29.5803 15.9785C29.422 15.9924 29.4464 15.8759 29.4063 15.8045C29.4856 15.8966 29.5945 15.9581 29.7143 15.9785C29.937 15.9907 29.9823 16.1421 30.038 16.2987C30.0693 16.3874 30.1023 16.4727 30.1371 16.5614C30.1563 16.6102 30.1598 16.6084 30.2415 16.6328C30.2118 16.5645 30.202 16.4891 30.2134 16.4155C30.2248 16.3419 30.2569 16.273 30.3059 16.2169C30.3494 16.1612 30.4051 16.1212 30.4573 16.1978C30.5079 16.2801 30.5521 16.3662 30.5895 16.4553C30.6191 16.5197 30.687 16.5754 30.734 16.5649C30.781 16.5545 30.7775 16.4692 30.7653 16.4118C30.7558 16.3822 30.7448 16.3532 30.7322 16.3248C30.727 16.3137 30.7242 16.3016 30.7241 16.2894C30.7241 16.2771 30.7267 16.265 30.7319 16.2538C30.737 16.2427 30.7445 16.2329 30.7539 16.225C30.7633 16.2171 30.7743 16.2114 30.7862 16.2082C30.8422 16.1866 30.888 16.1447 30.9144 16.0908C30.9409 16.037 30.946 15.9751 30.9289 15.9176C30.9097 15.8324 30.8888 15.7436 30.8714 15.674C30.9376 15.6305 30.9532 15.7036 30.9932 15.6949ZM27.1948 18.03C27.1577 17.9869 27.1363 17.9326 27.1337 17.8758C27.1312 17.819 27.1478 17.763 27.1808 17.7168C27.2084 17.6695 27.2171 17.6136 27.2052 17.5602C27.2028 17.5451 27.2041 17.5296 27.209 17.5151C27.2138 17.5005 27.2221 17.4874 27.233 17.4767C27.3531 17.327 27.2957 17.1443 27.3166 16.9773C27.3166 16.9599 27.2887 16.9286 27.2661 16.9181C27.066 16.8277 26.9738 16.631 26.8346 16.4814C26.8156 16.4597 26.7901 16.4446 26.762 16.4384C26.7338 16.4321 26.7044 16.435 26.678 16.4466C26.6567 16.4514 26.6374 16.4627 26.6228 16.4789C26.6082 16.4951 26.5989 16.5154 26.5962 16.5371C26.5736 16.6596 26.5762 16.7855 26.6041 16.907C26.6319 17.0285 26.6843 17.143 26.758 17.2435C26.7772 17.2786 26.7895 17.317 26.7946 17.3566C26.8193 17.4699 26.8513 17.5815 26.8903 17.6907C26.9148 17.7652 26.9545 17.8339 27.0069 17.8923C27.0593 17.9507 27.1233 17.9976 27.1948 18.03ZM27.2818 14.9276C27.2791 14.9434 27.2819 14.9596 27.2899 14.9736C27.2978 14.9875 27.3103 14.9983 27.3253 15.0041C27.3688 15.0198 27.3897 14.9798 27.4088 14.9519C27.444 14.9063 27.4877 14.8679 27.5376 14.8388C27.6909 14.7671 27.822 14.6553 27.9169 14.5152C27.9291 14.4925 27.9586 14.4682 27.9378 14.4438C27.9169 14.4195 27.8786 14.4299 27.8525 14.4438C27.6628 14.5343 27.487 14.6515 27.3305 14.7918C27.3125 14.8092 27.2988 14.8305 27.2904 14.854C27.2819 14.8776 27.279 14.9027 27.2818 14.9276ZM30.6922 17.7847C30.7923 17.7407 30.8766 17.6671 30.9335 17.5737C30.9904 17.4804 31.0174 17.3718 31.0106 17.2627C30.8245 17.414 30.6644 17.5741 30.6922 17.7847ZM26.798 15.6601C26.8468 15.6044 26.8729 15.5609 26.9285 15.5418C26.9842 15.5226 27.0225 15.4983 26.9703 15.4356C26.9459 15.4061 26.9703 15.3852 26.9981 15.3834C27.026 15.3817 27.0469 15.3173 27.0799 15.3678C27.0904 15.3834 27.0991 15.4095 27.1112 15.3921C27.1257 15.3654 27.1333 15.3355 27.1333 15.3051C27.1333 15.2748 27.1257 15.2449 27.1112 15.2181C27.0886 15.1642 27.0451 15.1416 26.9981 15.192C26.8969 15.3042 26.8204 15.4364 26.7737 15.5801C26.7615 15.5975 26.7789 15.6218 26.798 15.6601Z" fill="#37517E"/>
<path d="M24.8092 30.231C21.317 31.703 17.7691 31.717 14.2978 30.1962C7.60913 27.2642 4.49101 19.9127 7.04884 13.1283C8.47566 9.34724 11.1379 6.72329 14.9207 5.31039C18.7035 3.89749 22.4185 4.2281 26.0081 6.06556C23.3765 4.39162 20.2801 3.5993 17.1679 3.80347C14.0557 4.00764 11.0894 5.19768 8.69902 7.20108C6.30863 9.20447 4.61841 11.9171 3.87337 14.9457C3.12834 17.9743 3.36722 21.1615 4.55539 24.0452C7.12366 30.2292 13.5478 33.9303 20.1442 33.0081C27.0069 32.0458 31.1969 26.7683 32.1295 22.6845C30.7079 26.2185 28.2893 28.7641 24.8092 30.231Z" fill="#37517E"/>
<path d="M24.5222 14.7153C24.7083 14.5587 24.9032 14.4125 25.0755 14.242C25.3156 14.0054 25.3034 13.9392 25.0215 13.76C24.5952 13.4886 24.1602 13.238 23.7391 12.9509C23.3298 12.6848 22.9821 12.3342 22.7192 11.9228C22.4564 11.5114 22.2844 11.0486 22.2149 10.5653C22.0409 9.57701 22.1035 8.58868 22.1957 7.6073C22.2907 6.91014 22.1769 6.20047 21.8686 5.568C21.8216 5.47752 21.7364 5.36616 21.6511 5.34527C21.4092 5.29751 21.1645 5.26439 20.9186 5.24609C21.1048 6.05507 21.1048 6.89577 20.9186 7.70474C20.36 10.1721 19.0794 12.2288 17.2523 13.9445C16.1596 14.9641 14.9868 15.9263 13.9219 16.9825C12.7608 18.0902 12.0027 19.5538 11.7678 21.1412C11.5312 22.7629 11.7556 24.2732 12.7996 25.5904C13.26 26.1868 13.8388 26.6815 14.4996 27.0433C14.0298 26.2899 14.089 25.5539 14.256 24.8126C14.4631 23.8904 14.912 23.0726 15.4027 22.2792C15.6678 21.8404 16.0171 21.4583 16.4304 21.1549C16.8436 20.8515 17.3128 20.6328 17.8109 20.5113C18.8862 20.2259 19.9807 20.2955 21.0734 20.346C21.688 20.3848 22.3042 20.3924 22.9196 20.3686C23.4712 20.3373 23.7444 19.9945 23.7478 19.436C23.7478 19.1332 23.6974 18.827 23.7217 18.5277C23.7391 18.3137 23.7809 18.0405 23.9201 17.9117C24.3203 17.5446 24.5413 17.167 24.2472 16.6519C24.7257 16.3335 24.7397 16.2709 24.4787 15.7819C24.4369 15.7001 24.3899 15.6218 24.3516 15.5401C24.1672 15.1642 24.2089 14.978 24.5222 14.7153Z" fill="#37517E"/>
<path d="M13.7253 13.4923C14.8563 12.7284 16.0325 12.0307 17.0487 11.105C18.3694 9.90439 19.5056 8.57153 20.052 6.83673C20.2138 6.32691 20.2486 5.77532 20.3461 5.21677C16.2918 4.91575 11.5485 6.78627 8.87584 11.0424C6.59815 14.6738 6.27625 18.5245 7.76571 22.5265C7.77877 22.5184 7.78959 22.5071 7.79718 22.4938C7.80478 22.4804 7.80892 22.4653 7.80921 22.4499C7.85793 20.8178 8.38863 19.3388 9.24472 17.9659C10.3949 16.1302 11.947 14.6947 13.7253 13.4923Z" fill="#37517E"/>
<path d="M31.5797 20.367L32.4079 18.9489C32.226 18.9204 32.0398 18.9395 31.8675 19.0045C31.6952 19.0695 31.5426 19.178 31.4248 19.3195C31.0514 19.708 30.7217 20.1363 30.4417 20.5967C30.142 21.1685 29.7202 21.6675 29.2064 22.0584C28.6925 22.4492 28.0991 22.7225 27.468 22.8587C26.6363 23.0536 25.8115 23.2937 24.9502 23.5234C24.9834 23.3721 25.0538 23.2315 25.1549 23.1143C25.2561 22.997 25.3849 22.9068 25.5296 22.8517C25.9368 22.6638 26.348 22.4852 26.7633 22.3158C27.0888 22.1955 27.3691 21.9773 27.5657 21.6913C27.7623 21.4053 27.8655 21.0655 27.8612 20.7185C27.8165 20.7258 27.7723 20.7363 27.729 20.7498C26.7998 21.0856 25.8741 21.4301 24.945 21.7573C24.4858 21.8873 24.0857 22.1718 23.8122 22.5629C23.4155 23.1798 23.0609 23.8227 22.7508 24.4874C22.1122 25.902 21.5328 27.341 20.9133 28.7643C20.6541 29.3629 20.36 29.9458 20.0781 30.5461C20.1286 30.5618 20.1616 30.5826 20.1895 30.5774C21.2996 30.3947 22.4098 30.2155 23.5147 30.0137C23.5795 29.9867 23.6379 29.9465 23.6862 29.8955C23.7344 29.8446 23.7714 29.784 23.7948 29.7179C24.2785 28.4389 24.7379 27.1496 25.2268 25.8724C25.3048 25.6896 25.4404 25.5374 25.6131 25.4391C26.1351 25.1625 26.6763 24.9432 27.1948 24.6701C28.2771 24.1028 29.4934 23.7896 30.2903 22.7108C30.8523 21.9504 31.611 21.3362 32.2792 20.6558C32.6446 20.2835 33.0047 19.9059 33.4224 19.4709C32.5175 19.2412 32.2217 20.0625 31.5797 20.367Z" fill="#37517E"/>
<path d="M9.51445 25.6268C11.4006 28.1168 14.1539 29.8068 17.228 30.3614C18.1223 30.5354 18.011 30.7303 18.3085 29.6776C18.5001 29.0371 18.5511 28.3629 18.4582 27.7009C18.2459 28.5187 17.6752 28.9085 16.8921 29.0303C16.2272 29.1227 15.5498 29.0511 14.919 28.8215C13.9833 28.5265 13.125 28.027 12.4063 27.3591C11.6876 26.6913 11.1266 25.8719 10.7638 24.9604C9.99296 23.1194 9.86768 21.2768 10.689 19.4202C11.2788 18.089 12.1593 16.9545 13.1511 15.9053C13.6592 15.3659 14.1951 14.8613 14.7171 14.3393C14.6894 14.3325 14.6605 14.3322 14.6327 14.3386C14.6049 14.3449 14.579 14.3577 14.557 14.3758C13.4956 15.2197 12.4099 16.0358 11.378 16.9145C9.42571 18.5762 8.33646 20.6904 8.2077 23.2708C8.1966 23.431 8.23162 23.591 8.30862 23.7319C8.67254 24.387 9.0752 25.0197 9.51445 25.6268Z" fill="#37517E"/>
<path d="M18.4286 8.21616e-08C14.7837 9.84089e-08 11.2206 1.08086 8.19003 3.10589C5.15943 5.13093 2.7974 8.00918 1.40263 11.3767C0.00786944 14.7441 -0.356976 18.4496 0.354235 22.0244C1.06545 25.5993 2.82077 28.8829 5.39823 31.4601C7.97568 34.0374 11.2595 35.7924 14.8344 36.5033C18.4093 37.2141 22.1147 36.8489 25.4821 35.4538C28.8494 34.0588 31.7275 31.6965 33.7522 28.6657C35.777 25.6349 36.8575 22.0717 36.8571 18.4268C36.8571 16.0068 36.3805 13.6105 35.4543 11.3748C34.5282 9.13902 33.1707 7.10759 31.4594 5.39648C29.7482 3.68537 27.7166 2.32809 25.4808 1.40216C23.2449 0.476227 20.8486 -0.000228435 18.4286 8.21616e-08ZM18.4286 35.5556C15.056 35.5556 11.7591 34.5555 8.95488 32.6818C6.15065 30.8081 3.96503 28.1449 2.67439 25.029C1.38375 21.9131 1.04606 18.4845 1.70402 15.1767C2.36198 11.8689 3.98605 8.83045 6.37084 6.44566C8.75564 4.06086 11.7941 2.43679 15.1019 1.77883C18.4097 1.12087 21.8383 1.45856 24.9542 2.7492C28.0701 4.03984 30.7332 6.22547 32.607 9.02969C34.4807 11.8339 35.4808 15.1308 35.4808 18.5034C35.4808 23.0259 33.6842 27.3632 30.4863 30.5611C27.2884 33.759 22.9511 35.5556 18.4286 35.5556Z" fill="#37517E"/>
<defs>
<clipPath id="clip0_36_224">
<rect width="83" height="24" fill="white" transform="translate(46 6)"/>
</clipPath>
</defs>
</svg>
