<svg width="42" height="42" viewBox="0 0 42 42" fill="none" xmlns="http://www.w3.org/2000/svg">
<circle cx="21" cy="21" r="21" fill="#E7F5FB"/>
<path d="M28.2188 19.625C28.2188 24.7812 21 29.5938 21 29.5938C21 29.5938 13.7812 24.7812 13.7812 19.625C13.7812 17.7105 14.5418 15.8744 15.8956 14.5206C17.2494 13.1668 19.0855 12.4063 21 12.4062C22.9145 12.4063 24.7506 13.1668 26.1044 14.5206C27.4582 15.8744 28.2188 17.7105 28.2188 19.625V19.625Z" stroke="#47B2E4" stroke-width="1.5" stroke-linecap="round" stroke-linejoin="round"/>
<path d="M21 21.3438C21.9492 21.3438 22.7188 20.5742 22.7188 19.625C22.7188 18.6758 21.9492 17.9062 21 17.9062C20.0508 17.9062 19.2812 18.6758 19.2812 19.625C19.2812 20.5742 20.0508 21.3438 21 21.3438Z" fill="#47B2E4" stroke="#47B2E4" stroke-width="1.5" stroke-linecap="round" stroke-linejoin="round"/>
</svg>
