<svg width="42" height="42" viewBox="0 0 42 42" fill="none" xmlns="http://www.w3.org/2000/svg">
<circle cx="21" cy="21" r="21" fill="#E7F5FB"/>
<g clip-path="url(#clip0_35_189)">
<path d="M25.125 11.375C25.4897 11.375 25.8394 11.5199 26.0973 11.7777C26.3551 12.0356 26.5 12.3853 26.5 12.75V29.25C26.5 29.6147 26.3551 29.9644 26.0973 30.2223C25.8394 30.4801 25.4897 30.625 25.125 30.625H16.875C16.5103 30.625 16.1606 30.4801 15.9027 30.2223C15.6449 29.9644 15.5 29.6147 15.5 29.25V12.75C15.5 12.3853 15.6449 12.0356 15.9027 11.7777C16.1606 11.5199 16.5103 11.375 16.875 11.375H25.125ZM16.875 10C16.1457 10 15.4462 10.2897 14.9305 10.8055C14.4147 11.3212 14.125 12.0207 14.125 12.75V29.25C14.125 29.9793 14.4147 30.6788 14.9305 31.1945C15.4462 31.7103 16.1457 32 16.875 32H25.125C25.8543 32 26.5538 31.7103 27.0695 31.1945C27.5853 30.6788 27.875 29.9793 27.875 29.25V12.75C27.875 12.0207 27.5853 11.3212 27.0695 10.8055C26.5538 10.2897 25.8543 10 25.125 10H16.875Z" fill="#47B2E4"/>
<path d="M21 29.25C21.3647 29.25 21.7144 29.1051 21.9723 28.8473C22.2301 28.5894 22.375 28.2397 22.375 27.875C22.375 27.5103 22.2301 27.1606 21.9723 26.9027C21.7144 26.6449 21.3647 26.5 21 26.5C20.6353 26.5 20.2856 26.6449 20.0277 26.9027C19.7699 27.1606 19.625 27.5103 19.625 27.875C19.625 28.2397 19.7699 28.5894 20.0277 28.8473C20.2856 29.1051 20.6353 29.25 21 29.25Z" fill="#47B2E4"/>
</g>
<defs>
<clipPath id="clip0_35_189">
<rect width="22" height="22" fill="white" transform="translate(10 10)"/>
</clipPath>
</defs>
</svg>
